# xmcd CD database file
#
# Track frame offsets:
#	150
#	14410
#	37220
#	53727
#	69625
#	84407
#	98640
#	125850
#	131415
#	154300
#	186850
#	199952
#	216687
#	226372
#	239847
#	253982
#	268902
#	278640
#	285937
#	299980
#	314620
#
# Disc length: 4420 seconds
#
# Revision: 1
# Processed by: cddbd v1.5.1PL2 Copyright (c) Steve Scherf et al.
# Submitted via: CDex 1.51
#
DISCID=5f114215
DTITLE=Various Artist - 白鳥/チェロ名曲集
DYEAR=1900
DGENRE=classic
TTITLE0=サン＝サーンス - 白鳥
TTITLE1=ヘンデル - オンブラ・マイ・フ
TTITLE2=ドヴォルザーク - ユモレスク
TTITLE3=ポッパー - セレナード
TTITLE4=シューマン - トロイメライ
TTITLE5=クライスラー - 愛の悲しみ
TTITLE6=ドビュッシー - 月の光
TTITLE7=リムスキー＝コルサコフ - くまんばちは飛ぶ
TTITLE8=J.S.バッハ/グノー - アヴェ・マリア
TTITLE9=パガニーニ - ロッシーニのオペラ 「「エジプトのモーゼ」の主題による序奏と変奏曲」
TTITLE10=フォーレ - 夢のあとに
TTITLE11=グラナドス - スペイン舞曲 第5番 「アンダルーサ」
TTITLE12=クライスラー - 美しきロスマリン
TTITLE13=滝廉太郎/マイナルディ - 荒城の月
TTITLE14=日本古謡/マイナルディ - 子守歌
TTITLE15=ファリャ - 火祭りの踊り 「恋は魔術師」より
TTITLE16=Peter Ilyich Tchaikovsky (1840-1893) - 感傷的なワルツ 作品51の6
TTITLE17=プロコフィエフ・シューマン - 子供の行進曲 幻想小曲集
TTITLE18=有名なチェロリスト達 - やさしげに、表情をこめて
TTITLE19=有名なチェロリスト達 - いきいきと、軽やかに
TTITLE20=有名なチェロリスト達 - はやく、情熱に燃えて
EXTD=
EXTT0=
EXTT1=
EXTT2=
EXTT3=
EXTT4=
EXTT5=
EXTT6=
EXTT7=
EXTT8=
EXTT9=
EXTT10=
EXTT11=
EXTT12=
EXTT13=
EXTT14=
EXTT15=
EXTT16=
EXTT17=
EXTT18=
EXTT19=
EXTT20=
PLAYORDER=
